<mxfile host="Electron" modified="2024-06-18T19:18:58.496Z" agent="Mozilla/5.0 (Windows NT 10.0; Win64; x64) AppleWebKit/537.36 (KHTML, like Gecko) draw.io/24.1.0 Chrome/120.0.6099.109 Electron/28.1.0 Safari/537.36" etag="74SxYL70rSsjaEAjMbxw" version="24.1.0" type="device">
  <diagram name="Page-1" id="edf60f1a-56cd-e834-aa8a-f176f3a09ee4">
    <mxGraphModel dx="1219" dy="713" grid="1" gridSize="10" guides="1" tooltips="1" connect="1" arrows="1" fold="1" page="1" pageScale="1" pageWidth="1100" pageHeight="850" background="none" math="0" shadow="0">
      <root>
        <mxCell id="0" />
        <mxCell id="1" parent="0" />
        <mxCell id="60e70716793133e9-32" style="edgeStyle=orthogonalEdgeStyle;rounded=0;html=1;labelBackgroundColor=none;startSize=5;endArrow=classicThin;endFill=1;endSize=5;jettySize=auto;orthogonalLoop=1;strokeWidth=1;fontFamily=Verdana;fontSize=8" parent="1" source="60e70716793133e9-4" edge="1">
          <mxGeometry relative="1" as="geometry">
            <mxPoint x="560" y="290" as="targetPoint" />
          </mxGeometry>
        </mxCell>
        <mxCell id="60e70716793133e9-4" value="&lt;span style=&quot;font-size: 16px;&quot;&gt;Run main()&lt;/span&gt;" style="rounded=0;whiteSpace=wrap;html=1;shadow=1;labelBackgroundColor=none;strokeWidth=1;fontFamily=Verdana;fontSize=8;align=center;" parent="1" vertex="1">
          <mxGeometry x="500" y="150" width="120" height="60" as="geometry" />
        </mxCell>
        <mxCell id="4-opI2tt3qrMasOqlmpi-2" value="" style="edgeStyle=orthogonalEdgeStyle;rounded=0;orthogonalLoop=1;jettySize=auto;html=1;" edge="1" parent="1" source="4-opI2tt3qrMasOqlmpi-1" target="60e70716793133e9-4">
          <mxGeometry relative="1" as="geometry" />
        </mxCell>
        <mxCell id="4-opI2tt3qrMasOqlmpi-1" value="&lt;b&gt;&lt;font style=&quot;font-size: 20px;&quot;&gt;Start&lt;/font&gt;&lt;/b&gt;" style="strokeWidth=2;html=1;shape=mxgraph.flowchart.start_2;whiteSpace=wrap;" vertex="1" parent="1">
          <mxGeometry x="510" y="20" width="100" height="100" as="geometry" />
        </mxCell>
        <mxCell id="4-opI2tt3qrMasOqlmpi-5" value="" style="edgeStyle=orthogonalEdgeStyle;rounded=0;orthogonalLoop=1;jettySize=auto;html=1;" edge="1" parent="1" source="4-opI2tt3qrMasOqlmpi-3" target="4-opI2tt3qrMasOqlmpi-4">
          <mxGeometry relative="1" as="geometry" />
        </mxCell>
        <mxCell id="4-opI2tt3qrMasOqlmpi-3" value="Print Ascii art heading&lt;div&gt;Print menu&lt;/div&gt;" style="rounded=1;whiteSpace=wrap;html=1;absoluteArcSize=1;arcSize=14;strokeWidth=2;" vertex="1" parent="1">
          <mxGeometry x="510" y="250" width="100" height="100" as="geometry" />
        </mxCell>
        <mxCell id="4-opI2tt3qrMasOqlmpi-7" value="" style="edgeStyle=orthogonalEdgeStyle;rounded=0;orthogonalLoop=1;jettySize=auto;html=1;" edge="1" parent="1" source="4-opI2tt3qrMasOqlmpi-4" target="4-opI2tt3qrMasOqlmpi-6">
          <mxGeometry relative="1" as="geometry" />
        </mxCell>
        <mxCell id="4-opI2tt3qrMasOqlmpi-10" value="" style="edgeStyle=orthogonalEdgeStyle;rounded=0;orthogonalLoop=1;jettySize=auto;html=1;" edge="1" parent="1" source="4-opI2tt3qrMasOqlmpi-4" target="4-opI2tt3qrMasOqlmpi-6">
          <mxGeometry relative="1" as="geometry" />
        </mxCell>
        <mxCell id="4-opI2tt3qrMasOqlmpi-11" style="edgeStyle=orthogonalEdgeStyle;rounded=0;orthogonalLoop=1;jettySize=auto;html=1;" edge="1" parent="1" source="4-opI2tt3qrMasOqlmpi-4">
          <mxGeometry relative="1" as="geometry">
            <mxPoint x="460" y="490" as="targetPoint" />
            <Array as="points">
              <mxPoint x="490" y="440" />
              <mxPoint x="490" y="490" />
            </Array>
          </mxGeometry>
        </mxCell>
        <mxCell id="4-opI2tt3qrMasOqlmpi-18" value="" style="edgeStyle=orthogonalEdgeStyle;rounded=0;orthogonalLoop=1;jettySize=auto;html=1;" edge="1" parent="1" source="4-opI2tt3qrMasOqlmpi-4" target="4-opI2tt3qrMasOqlmpi-17">
          <mxGeometry relative="1" as="geometry" />
        </mxCell>
        <mxCell id="4-opI2tt3qrMasOqlmpi-68" value="" style="edgeStyle=orthogonalEdgeStyle;rounded=0;orthogonalLoop=1;jettySize=auto;html=1;" edge="1" parent="1" source="4-opI2tt3qrMasOqlmpi-4" target="4-opI2tt3qrMasOqlmpi-67">
          <mxGeometry relative="1" as="geometry" />
        </mxCell>
        <mxCell id="4-opI2tt3qrMasOqlmpi-78" value="" style="edgeStyle=orthogonalEdgeStyle;rounded=0;orthogonalLoop=1;jettySize=auto;html=1;" edge="1" parent="1" source="4-opI2tt3qrMasOqlmpi-4" target="4-opI2tt3qrMasOqlmpi-77">
          <mxGeometry relative="1" as="geometry">
            <Array as="points">
              <mxPoint x="640" y="440" />
              <mxPoint x="640" y="300" />
            </Array>
          </mxGeometry>
        </mxCell>
        <mxCell id="4-opI2tt3qrMasOqlmpi-87" style="edgeStyle=orthogonalEdgeStyle;rounded=0;orthogonalLoop=1;jettySize=auto;html=1;entryX=0;entryY=0.5;entryDx=0;entryDy=0;" edge="1" parent="1" source="4-opI2tt3qrMasOqlmpi-4" target="4-opI2tt3qrMasOqlmpi-86">
          <mxGeometry relative="1" as="geometry">
            <Array as="points">
              <mxPoint x="640" y="440" />
              <mxPoint x="640" y="470" />
            </Array>
          </mxGeometry>
        </mxCell>
        <mxCell id="4-opI2tt3qrMasOqlmpi-4" value="User input" style="rhombus;whiteSpace=wrap;html=1;rounded=1;arcSize=14;strokeWidth=2;" vertex="1" parent="1">
          <mxGeometry x="520" y="400" width="80" height="80" as="geometry" />
        </mxCell>
        <mxCell id="4-opI2tt3qrMasOqlmpi-9" value="" style="edgeStyle=orthogonalEdgeStyle;rounded=0;orthogonalLoop=1;jettySize=auto;html=1;" edge="1" parent="1" source="4-opI2tt3qrMasOqlmpi-6" target="4-opI2tt3qrMasOqlmpi-8">
          <mxGeometry relative="1" as="geometry" />
        </mxCell>
        <mxCell id="4-opI2tt3qrMasOqlmpi-6" value="&lt;div&gt;&lt;span style=&quot;background-color: initial;&quot;&gt;input = 0&lt;/span&gt;&lt;br&gt;&lt;/div&gt;&lt;div&gt;&lt;span style=&quot;background-color: initial;&quot;&gt;information&lt;/span&gt;&lt;/div&gt;" style="shape=hexagon;perimeter=hexagonPerimeter2;whiteSpace=wrap;html=1;fixedSize=1;rounded=1;arcSize=14;strokeWidth=2;" vertex="1" parent="1">
          <mxGeometry x="340" y="340" width="120" height="80" as="geometry" />
        </mxCell>
        <mxCell id="4-opI2tt3qrMasOqlmpi-97" style="edgeStyle=orthogonalEdgeStyle;rounded=0;orthogonalLoop=1;jettySize=auto;html=1;entryX=0;entryY=0.5;entryDx=0;entryDy=0;" edge="1" parent="1" source="4-opI2tt3qrMasOqlmpi-8" target="60e70716793133e9-4">
          <mxGeometry relative="1" as="geometry">
            <Array as="points">
              <mxPoint x="200" y="180" />
            </Array>
          </mxGeometry>
        </mxCell>
        <mxCell id="4-opI2tt3qrMasOqlmpi-8" value="Print information page" style="shape=process;whiteSpace=wrap;html=1;backgroundOutline=1;rounded=1;arcSize=14;strokeWidth=2;" vertex="1" parent="1">
          <mxGeometry x="140" y="350" width="120" height="60" as="geometry" />
        </mxCell>
        <mxCell id="4-opI2tt3qrMasOqlmpi-14" value="" style="edgeStyle=orthogonalEdgeStyle;rounded=0;orthogonalLoop=1;jettySize=auto;html=1;" edge="1" parent="1" source="4-opI2tt3qrMasOqlmpi-12" target="4-opI2tt3qrMasOqlmpi-13">
          <mxGeometry relative="1" as="geometry" />
        </mxCell>
        <mxCell id="4-opI2tt3qrMasOqlmpi-12" value="&lt;div&gt;&lt;span style=&quot;background-color: initial;&quot;&gt;input = 1&lt;/span&gt;&lt;br&gt;&lt;/div&gt;&lt;div&gt;Set folder&amp;nbsp;&lt;/div&gt;&lt;div&gt;destination&lt;/div&gt;" style="shape=hexagon;perimeter=hexagonPerimeter2;whiteSpace=wrap;html=1;fixedSize=1;rounded=1;arcSize=14;strokeWidth=2;" vertex="1" parent="1">
          <mxGeometry x="340" y="450" width="120" height="80" as="geometry" />
        </mxCell>
        <mxCell id="4-opI2tt3qrMasOqlmpi-16" value="" style="edgeStyle=orthogonalEdgeStyle;rounded=0;orthogonalLoop=1;jettySize=auto;html=1;" edge="1" parent="1" source="4-opI2tt3qrMasOqlmpi-13" target="4-opI2tt3qrMasOqlmpi-15">
          <mxGeometry relative="1" as="geometry" />
        </mxCell>
        <mxCell id="4-opI2tt3qrMasOqlmpi-13" value="Open file dialogue, have user select image file" style="shape=process;whiteSpace=wrap;html=1;backgroundOutline=1;rounded=1;arcSize=14;strokeWidth=2;" vertex="1" parent="1">
          <mxGeometry x="70" y="570" width="120" height="60" as="geometry" />
        </mxCell>
        <mxCell id="4-opI2tt3qrMasOqlmpi-65" style="edgeStyle=orthogonalEdgeStyle;rounded=0;orthogonalLoop=1;jettySize=auto;html=1;entryX=0;entryY=0.5;entryDx=0;entryDy=0;" edge="1" parent="1" source="4-opI2tt3qrMasOqlmpi-15" target="60e70716793133e9-4">
          <mxGeometry relative="1" as="geometry">
            <Array as="points">
              <mxPoint x="40" y="720" />
              <mxPoint x="40" y="180" />
            </Array>
          </mxGeometry>
        </mxCell>
        <mxCell id="4-opI2tt3qrMasOqlmpi-15" value="Print the new file directory path" style="shape=process;whiteSpace=wrap;html=1;backgroundOutline=1;rounded=1;arcSize=14;strokeWidth=2;" vertex="1" parent="1">
          <mxGeometry x="70" y="690" width="120" height="60" as="geometry" />
        </mxCell>
        <mxCell id="4-opI2tt3qrMasOqlmpi-20" value="" style="edgeStyle=orthogonalEdgeStyle;rounded=0;orthogonalLoop=1;jettySize=auto;html=1;" edge="1" parent="1" source="4-opI2tt3qrMasOqlmpi-17" target="4-opI2tt3qrMasOqlmpi-19">
          <mxGeometry relative="1" as="geometry" />
        </mxCell>
        <mxCell id="4-opI2tt3qrMasOqlmpi-17" value="input = 2&lt;div&gt;deDuplicate&lt;/div&gt;" style="shape=hexagon;perimeter=hexagonPerimeter2;whiteSpace=wrap;html=1;fixedSize=1;rounded=1;arcSize=14;strokeWidth=2;" vertex="1" parent="1">
          <mxGeometry x="420" y="560" width="120" height="80" as="geometry" />
        </mxCell>
        <mxCell id="4-opI2tt3qrMasOqlmpi-22" value="" style="edgeStyle=orthogonalEdgeStyle;rounded=0;orthogonalLoop=1;jettySize=auto;html=1;" edge="1" parent="1" source="4-opI2tt3qrMasOqlmpi-19" target="4-opI2tt3qrMasOqlmpi-21">
          <mxGeometry relative="1" as="geometry" />
        </mxCell>
        <mxCell id="4-opI2tt3qrMasOqlmpi-19" value="Run deDuplicate function" style="shape=process;whiteSpace=wrap;html=1;backgroundOutline=1;rounded=1;arcSize=14;strokeWidth=2;" vertex="1" parent="1">
          <mxGeometry x="270" y="570" width="120" height="60" as="geometry" />
        </mxCell>
        <mxCell id="4-opI2tt3qrMasOqlmpi-24" value="" style="edgeStyle=orthogonalEdgeStyle;rounded=0;orthogonalLoop=1;jettySize=auto;html=1;" edge="1" parent="1" source="4-opI2tt3qrMasOqlmpi-21" target="4-opI2tt3qrMasOqlmpi-23">
          <mxGeometry relative="1" as="geometry" />
        </mxCell>
        <mxCell id="4-opI2tt3qrMasOqlmpi-21" value="Access the set path" style="shape=process;whiteSpace=wrap;html=1;backgroundOutline=1;rounded=1;arcSize=14;strokeWidth=2;" vertex="1" parent="1">
          <mxGeometry x="270" y="650" width="120" height="60" as="geometry" />
        </mxCell>
        <mxCell id="4-opI2tt3qrMasOqlmpi-29" value="" style="edgeStyle=orthogonalEdgeStyle;rounded=0;orthogonalLoop=1;jettySize=auto;html=1;" edge="1" parent="1" source="4-opI2tt3qrMasOqlmpi-23" target="4-opI2tt3qrMasOqlmpi-28">
          <mxGeometry relative="1" as="geometry" />
        </mxCell>
        <mxCell id="4-opI2tt3qrMasOqlmpi-36" value="Yes&amp;nbsp; &amp;nbsp; &amp;nbsp; &amp;nbsp; &amp;nbsp;&amp;nbsp;" style="edgeLabel;html=1;align=center;verticalAlign=middle;resizable=0;points=[];" vertex="1" connectable="0" parent="4-opI2tt3qrMasOqlmpi-29">
          <mxGeometry x="0.0183" y="2" relative="1" as="geometry">
            <mxPoint as="offset" />
          </mxGeometry>
        </mxCell>
        <mxCell id="4-opI2tt3qrMasOqlmpi-31" value="" style="edgeStyle=orthogonalEdgeStyle;rounded=0;orthogonalLoop=1;jettySize=auto;html=1;" edge="1" parent="1" source="4-opI2tt3qrMasOqlmpi-23" target="4-opI2tt3qrMasOqlmpi-30">
          <mxGeometry relative="1" as="geometry" />
        </mxCell>
        <mxCell id="4-opI2tt3qrMasOqlmpi-35" value="No&lt;div&gt;&lt;br&gt;&lt;/div&gt;" style="edgeLabel;html=1;align=center;verticalAlign=middle;resizable=0;points=[];" vertex="1" connectable="0" parent="4-opI2tt3qrMasOqlmpi-31">
          <mxGeometry x="-0.0686" y="-1" relative="1" as="geometry">
            <mxPoint as="offset" />
          </mxGeometry>
        </mxCell>
        <mxCell id="4-opI2tt3qrMasOqlmpi-23" value="Successful?" style="rhombus;whiteSpace=wrap;html=1;rounded=1;arcSize=14;strokeWidth=2;" vertex="1" parent="1">
          <mxGeometry x="290" y="740" width="80" height="80" as="geometry" />
        </mxCell>
        <mxCell id="4-opI2tt3qrMasOqlmpi-38" value="" style="edgeStyle=orthogonalEdgeStyle;rounded=0;orthogonalLoop=1;jettySize=auto;html=1;" edge="1" parent="1" source="4-opI2tt3qrMasOqlmpi-28" target="4-opI2tt3qrMasOqlmpi-37">
          <mxGeometry relative="1" as="geometry" />
        </mxCell>
        <mxCell id="4-opI2tt3qrMasOqlmpi-28" value="Access image hashes" style="shape=process;whiteSpace=wrap;html=1;backgroundOutline=1;rounded=1;arcSize=14;strokeWidth=2;" vertex="1" parent="1">
          <mxGeometry x="270" y="930" width="120" height="60" as="geometry" />
        </mxCell>
        <mxCell id="4-opI2tt3qrMasOqlmpi-34" value="" style="edgeStyle=orthogonalEdgeStyle;rounded=0;orthogonalLoop=1;jettySize=auto;html=1;" edge="1" parent="1" source="4-opI2tt3qrMasOqlmpi-30" target="4-opI2tt3qrMasOqlmpi-33">
          <mxGeometry relative="1" as="geometry">
            <Array as="points">
              <mxPoint x="520" y="680" />
            </Array>
          </mxGeometry>
        </mxCell>
        <mxCell id="4-opI2tt3qrMasOqlmpi-30" value="Inform user of failure" style="shape=process;whiteSpace=wrap;html=1;backgroundOutline=1;rounded=1;arcSize=14;strokeWidth=2;" vertex="1" parent="1">
          <mxGeometry x="430" y="750" width="120" height="60" as="geometry" />
        </mxCell>
        <mxCell id="4-opI2tt3qrMasOqlmpi-33" value="Return &#xa;&#xa;to main" style="shape=waypoint;sketch=0;size=6;pointerEvents=1;points=[];fillColor=default;resizable=0;rotatable=0;perimeter=centerPerimeter;snapToPoint=1;rounded=1;arcSize=14;strokeWidth=2;" vertex="1" parent="1">
          <mxGeometry x="480" y="670" width="20" height="20" as="geometry" />
        </mxCell>
        <mxCell id="4-opI2tt3qrMasOqlmpi-40" value="" style="edgeStyle=orthogonalEdgeStyle;rounded=0;orthogonalLoop=1;jettySize=auto;html=1;" edge="1" parent="1" source="4-opI2tt3qrMasOqlmpi-37" target="4-opI2tt3qrMasOqlmpi-39">
          <mxGeometry relative="1" as="geometry" />
        </mxCell>
        <mxCell id="4-opI2tt3qrMasOqlmpi-41" value="Yes" style="edgeLabel;html=1;align=center;verticalAlign=middle;resizable=0;points=[];" vertex="1" connectable="0" parent="4-opI2tt3qrMasOqlmpi-40">
          <mxGeometry x="-0.2471" y="5" relative="1" as="geometry">
            <mxPoint as="offset" />
          </mxGeometry>
        </mxCell>
        <mxCell id="4-opI2tt3qrMasOqlmpi-43" value="" style="edgeStyle=orthogonalEdgeStyle;rounded=0;orthogonalLoop=1;jettySize=auto;html=1;" edge="1" parent="1" source="4-opI2tt3qrMasOqlmpi-37" target="4-opI2tt3qrMasOqlmpi-42">
          <mxGeometry relative="1" as="geometry" />
        </mxCell>
        <mxCell id="4-opI2tt3qrMasOqlmpi-44" value="No&lt;div&gt;&lt;br&gt;&lt;/div&gt;" style="edgeLabel;html=1;align=center;verticalAlign=middle;resizable=0;points=[];" vertex="1" connectable="0" parent="4-opI2tt3qrMasOqlmpi-43">
          <mxGeometry x="-0.0118" y="-5" relative="1" as="geometry">
            <mxPoint x="-1" as="offset" />
          </mxGeometry>
        </mxCell>
        <mxCell id="4-opI2tt3qrMasOqlmpi-48" value="" style="edgeStyle=orthogonalEdgeStyle;rounded=0;orthogonalLoop=1;jettySize=auto;html=1;" edge="1" parent="1" source="4-opI2tt3qrMasOqlmpi-37" target="4-opI2tt3qrMasOqlmpi-47">
          <mxGeometry relative="1" as="geometry" />
        </mxCell>
        <mxCell id="4-opI2tt3qrMasOqlmpi-49" value="No images&lt;div&gt;remaining&lt;/div&gt;" style="edgeLabel;html=1;align=center;verticalAlign=middle;resizable=0;points=[];" vertex="1" connectable="0" parent="4-opI2tt3qrMasOqlmpi-48">
          <mxGeometry x="-0.2388" y="1" relative="1" as="geometry">
            <mxPoint as="offset" />
          </mxGeometry>
        </mxCell>
        <mxCell id="4-opI2tt3qrMasOqlmpi-37" value="Is it in the&amp;nbsp;&lt;div&gt;main image&amp;nbsp;&lt;div&gt;dictionary?&lt;/div&gt;&lt;/div&gt;" style="rhombus;whiteSpace=wrap;html=1;rounded=1;arcSize=14;strokeWidth=2;" vertex="1" parent="1">
          <mxGeometry x="275" y="1040" width="110" height="100" as="geometry" />
        </mxCell>
        <mxCell id="4-opI2tt3qrMasOqlmpi-46" style="edgeStyle=orthogonalEdgeStyle;rounded=0;orthogonalLoop=1;jettySize=auto;html=1;entryX=1;entryY=0.5;entryDx=0;entryDy=0;" edge="1" parent="1" source="4-opI2tt3qrMasOqlmpi-39" target="4-opI2tt3qrMasOqlmpi-28">
          <mxGeometry relative="1" as="geometry">
            <Array as="points">
              <mxPoint x="520" y="960" />
            </Array>
          </mxGeometry>
        </mxCell>
        <mxCell id="4-opI2tt3qrMasOqlmpi-39" value="Add to duplicate directory" style="shape=process;whiteSpace=wrap;html=1;backgroundOutline=1;rounded=1;arcSize=14;strokeWidth=2;" vertex="1" parent="1">
          <mxGeometry x="460" y="1060" width="120" height="60" as="geometry" />
        </mxCell>
        <mxCell id="4-opI2tt3qrMasOqlmpi-45" style="edgeStyle=orthogonalEdgeStyle;rounded=0;orthogonalLoop=1;jettySize=auto;html=1;entryX=0;entryY=0.5;entryDx=0;entryDy=0;" edge="1" parent="1" source="4-opI2tt3qrMasOqlmpi-42" target="4-opI2tt3qrMasOqlmpi-28">
          <mxGeometry relative="1" as="geometry">
            <mxPoint x="159.99999999999977" y="920" as="targetPoint" />
            <Array as="points">
              <mxPoint x="140" y="960" />
            </Array>
          </mxGeometry>
        </mxCell>
        <mxCell id="4-opI2tt3qrMasOqlmpi-42" value="Add to main image directory" style="shape=process;whiteSpace=wrap;html=1;backgroundOutline=1;rounded=1;arcSize=14;strokeWidth=2;" vertex="1" parent="1">
          <mxGeometry x="80" y="1060" width="120" height="60" as="geometry" />
        </mxCell>
        <mxCell id="4-opI2tt3qrMasOqlmpi-52" value="" style="edgeStyle=orthogonalEdgeStyle;rounded=0;orthogonalLoop=1;jettySize=auto;html=1;" edge="1" parent="1" source="4-opI2tt3qrMasOqlmpi-47" target="4-opI2tt3qrMasOqlmpi-51">
          <mxGeometry relative="1" as="geometry" />
        </mxCell>
        <mxCell id="4-opI2tt3qrMasOqlmpi-47" value="Print main and duplicate images in seperate lists" style="shape=process;whiteSpace=wrap;html=1;backgroundOutline=1;rounded=1;arcSize=14;strokeWidth=2;" vertex="1" parent="1">
          <mxGeometry x="270" y="1240" width="120" height="60" as="geometry" />
        </mxCell>
        <mxCell id="4-opI2tt3qrMasOqlmpi-56" value="" style="edgeStyle=orthogonalEdgeStyle;rounded=0;orthogonalLoop=1;jettySize=auto;html=1;" edge="1" parent="1" source="4-opI2tt3qrMasOqlmpi-51" target="4-opI2tt3qrMasOqlmpi-55">
          <mxGeometry relative="1" as="geometry" />
        </mxCell>
        <mxCell id="4-opI2tt3qrMasOqlmpi-57" value="No" style="edgeLabel;html=1;align=center;verticalAlign=middle;resizable=0;points=[];" vertex="1" connectable="0" parent="4-opI2tt3qrMasOqlmpi-56">
          <mxGeometry x="-0.0633" y="5" relative="1" as="geometry">
            <mxPoint as="offset" />
          </mxGeometry>
        </mxCell>
        <mxCell id="4-opI2tt3qrMasOqlmpi-59" value="" style="edgeStyle=orthogonalEdgeStyle;rounded=0;orthogonalLoop=1;jettySize=auto;html=1;" edge="1" parent="1" source="4-opI2tt3qrMasOqlmpi-51" target="4-opI2tt3qrMasOqlmpi-58">
          <mxGeometry relative="1" as="geometry" />
        </mxCell>
        <mxCell id="4-opI2tt3qrMasOqlmpi-51" value="Does the&amp;nbsp;&lt;div&gt;user wish to delete?&lt;/div&gt;" style="rhombus;whiteSpace=wrap;html=1;rounded=1;arcSize=14;strokeWidth=2;" vertex="1" parent="1">
          <mxGeometry x="280" y="1370" width="100" height="100" as="geometry" />
        </mxCell>
        <mxCell id="4-opI2tt3qrMasOqlmpi-55" value="Return to&#xa;&#xa;Main" style="shape=waypoint;sketch=0;size=6;pointerEvents=1;points=[];fillColor=default;resizable=0;rotatable=0;perimeter=centerPerimeter;snapToPoint=1;rounded=1;arcSize=14;strokeWidth=2;" vertex="1" parent="1">
          <mxGeometry x="140" y="1410" width="20" height="20" as="geometry" />
        </mxCell>
        <mxCell id="4-opI2tt3qrMasOqlmpi-63" value="" style="edgeStyle=orthogonalEdgeStyle;rounded=0;orthogonalLoop=1;jettySize=auto;html=1;" edge="1" parent="1" source="4-opI2tt3qrMasOqlmpi-58" target="4-opI2tt3qrMasOqlmpi-62">
          <mxGeometry relative="1" as="geometry" />
        </mxCell>
        <mxCell id="4-opI2tt3qrMasOqlmpi-58" value="Is the&amp;nbsp;&lt;div&gt;user&amp;nbsp;&lt;/div&gt;&lt;div&gt;sure?&lt;/div&gt;" style="rhombus;whiteSpace=wrap;html=1;rounded=1;arcSize=14;strokeWidth=2;" vertex="1" parent="1">
          <mxGeometry x="290" y="1500" width="80" height="80" as="geometry" />
        </mxCell>
        <mxCell id="4-opI2tt3qrMasOqlmpi-60" style="edgeStyle=orthogonalEdgeStyle;rounded=0;orthogonalLoop=1;jettySize=auto;html=1;entryX=0.615;entryY=0.779;entryDx=0;entryDy=0;entryPerimeter=0;" edge="1" parent="1" source="4-opI2tt3qrMasOqlmpi-58" target="4-opI2tt3qrMasOqlmpi-55">
          <mxGeometry relative="1" as="geometry">
            <Array as="points">
              <mxPoint x="110" y="1540" />
              <mxPoint x="110" y="1420" />
            </Array>
          </mxGeometry>
        </mxCell>
        <mxCell id="4-opI2tt3qrMasOqlmpi-61" value="No" style="edgeLabel;html=1;align=center;verticalAlign=middle;resizable=0;points=[];" vertex="1" connectable="0" parent="4-opI2tt3qrMasOqlmpi-60">
          <mxGeometry x="-0.5829" relative="1" as="geometry">
            <mxPoint as="offset" />
          </mxGeometry>
        </mxCell>
        <mxCell id="4-opI2tt3qrMasOqlmpi-62" value="Delete images" style="shape=process;whiteSpace=wrap;html=1;backgroundOutline=1;rounded=1;arcSize=14;strokeWidth=2;" vertex="1" parent="1">
          <mxGeometry x="430" y="1510" width="120" height="60" as="geometry" />
        </mxCell>
        <mxCell id="4-opI2tt3qrMasOqlmpi-64" style="edgeStyle=orthogonalEdgeStyle;rounded=0;orthogonalLoop=1;jettySize=auto;html=1;entryX=0.191;entryY=1.25;entryDx=0;entryDy=0;entryPerimeter=0;" edge="1" parent="1" source="4-opI2tt3qrMasOqlmpi-62" target="4-opI2tt3qrMasOqlmpi-55">
          <mxGeometry relative="1" as="geometry">
            <Array as="points">
              <mxPoint x="490" y="1610" />
              <mxPoint x="110" y="1610" />
              <mxPoint x="110" y="1420" />
            </Array>
          </mxGeometry>
        </mxCell>
        <mxCell id="4-opI2tt3qrMasOqlmpi-70" value="" style="edgeStyle=orthogonalEdgeStyle;rounded=0;orthogonalLoop=1;jettySize=auto;html=1;" edge="1" parent="1" source="4-opI2tt3qrMasOqlmpi-67" target="4-opI2tt3qrMasOqlmpi-69">
          <mxGeometry relative="1" as="geometry">
            <Array as="points">
              <mxPoint x="720" y="600" />
            </Array>
          </mxGeometry>
        </mxCell>
        <mxCell id="4-opI2tt3qrMasOqlmpi-67" value="input = 3&lt;div&gt;Clear history&lt;/div&gt;" style="shape=hexagon;perimeter=hexagonPerimeter2;whiteSpace=wrap;html=1;fixedSize=1;rounded=1;arcSize=14;strokeWidth=2;" vertex="1" parent="1">
          <mxGeometry x="580" y="560" width="120" height="80" as="geometry" />
        </mxCell>
        <mxCell id="4-opI2tt3qrMasOqlmpi-74" value="" style="edgeStyle=orthogonalEdgeStyle;rounded=0;orthogonalLoop=1;jettySize=auto;html=1;" edge="1" parent="1" source="4-opI2tt3qrMasOqlmpi-69" target="4-opI2tt3qrMasOqlmpi-73">
          <mxGeometry relative="1" as="geometry" />
        </mxCell>
        <mxCell id="4-opI2tt3qrMasOqlmpi-76" value="Text" style="edgeLabel;html=1;align=center;verticalAlign=middle;resizable=0;points=[];" vertex="1" connectable="0" parent="4-opI2tt3qrMasOqlmpi-74">
          <mxGeometry x="0.302" y="-1" relative="1" as="geometry">
            <mxPoint as="offset" />
          </mxGeometry>
        </mxCell>
        <mxCell id="4-opI2tt3qrMasOqlmpi-69" value="Is the user certain?" style="rhombus;whiteSpace=wrap;html=1;rounded=1;arcSize=14;strokeWidth=2;" vertex="1" parent="1">
          <mxGeometry x="680" y="690" width="80" height="80" as="geometry" />
        </mxCell>
        <mxCell id="4-opI2tt3qrMasOqlmpi-71" style="edgeStyle=orthogonalEdgeStyle;rounded=0;orthogonalLoop=1;jettySize=auto;html=1;entryX=0.791;entryY=0.838;entryDx=0;entryDy=0;entryPerimeter=0;" edge="1" parent="1" source="4-opI2tt3qrMasOqlmpi-69" target="4-opI2tt3qrMasOqlmpi-33">
          <mxGeometry relative="1" as="geometry" />
        </mxCell>
        <mxCell id="4-opI2tt3qrMasOqlmpi-72" value="No" style="edgeLabel;html=1;align=center;verticalAlign=middle;resizable=0;points=[];" vertex="1" connectable="0" parent="4-opI2tt3qrMasOqlmpi-71">
          <mxGeometry x="-0.7158" y="1" relative="1" as="geometry">
            <mxPoint as="offset" />
          </mxGeometry>
        </mxCell>
        <mxCell id="4-opI2tt3qrMasOqlmpi-75" style="edgeStyle=orthogonalEdgeStyle;rounded=0;orthogonalLoop=1;jettySize=auto;html=1;" edge="1" parent="1" source="4-opI2tt3qrMasOqlmpi-73" target="4-opI2tt3qrMasOqlmpi-33">
          <mxGeometry relative="1" as="geometry">
            <mxPoint x="549.9999999999998" y="690" as="targetPoint" />
            <Array as="points">
              <mxPoint x="590" y="835" />
              <mxPoint x="590" y="680" />
            </Array>
          </mxGeometry>
        </mxCell>
        <mxCell id="4-opI2tt3qrMasOqlmpi-73" value="Set main images and duplicate images dictionaries to empty" style="shape=process;whiteSpace=wrap;html=1;backgroundOutline=1;rounded=1;arcSize=14;strokeWidth=2;" vertex="1" parent="1">
          <mxGeometry x="660" y="800" width="120" height="70" as="geometry" />
        </mxCell>
        <mxCell id="4-opI2tt3qrMasOqlmpi-80" value="" style="edgeStyle=orthogonalEdgeStyle;rounded=0;orthogonalLoop=1;jettySize=auto;html=1;" edge="1" parent="1" source="4-opI2tt3qrMasOqlmpi-77" target="4-opI2tt3qrMasOqlmpi-79">
          <mxGeometry relative="1" as="geometry" />
        </mxCell>
        <mxCell id="4-opI2tt3qrMasOqlmpi-77" value="Input = 5&lt;div&gt;Terminate program&lt;/div&gt;" style="shape=hexagon;perimeter=hexagonPerimeter2;whiteSpace=wrap;html=1;fixedSize=1;rounded=1;arcSize=14;strokeWidth=2;" vertex="1" parent="1">
          <mxGeometry x="700" y="260" width="120" height="80" as="geometry" />
        </mxCell>
        <mxCell id="4-opI2tt3qrMasOqlmpi-81" style="edgeStyle=orthogonalEdgeStyle;rounded=0;orthogonalLoop=1;jettySize=auto;html=1;entryX=1;entryY=0.5;entryDx=0;entryDy=0;" edge="1" parent="1" source="4-opI2tt3qrMasOqlmpi-79" target="60e70716793133e9-4">
          <mxGeometry relative="1" as="geometry">
            <Array as="points">
              <mxPoint x="940" y="180" />
            </Array>
          </mxGeometry>
        </mxCell>
        <mxCell id="4-opI2tt3qrMasOqlmpi-82" value="No" style="edgeLabel;html=1;align=center;verticalAlign=middle;resizable=0;points=[];" vertex="1" connectable="0" parent="4-opI2tt3qrMasOqlmpi-81">
          <mxGeometry x="-0.7242" relative="1" as="geometry">
            <mxPoint as="offset" />
          </mxGeometry>
        </mxCell>
        <mxCell id="4-opI2tt3qrMasOqlmpi-84" value="" style="edgeStyle=orthogonalEdgeStyle;rounded=0;orthogonalLoop=1;jettySize=auto;html=1;entryX=1;entryY=0.5;entryDx=0;entryDy=0;" edge="1" parent="1" source="4-opI2tt3qrMasOqlmpi-79" target="4-opI2tt3qrMasOqlmpi-83">
          <mxGeometry relative="1" as="geometry" />
        </mxCell>
        <mxCell id="4-opI2tt3qrMasOqlmpi-85" value="Yes&lt;div&gt;&lt;br&gt;&lt;/div&gt;" style="edgeLabel;html=1;align=center;verticalAlign=middle;resizable=0;points=[];" vertex="1" connectable="0" parent="4-opI2tt3qrMasOqlmpi-84">
          <mxGeometry x="-0.3091" relative="1" as="geometry">
            <mxPoint as="offset" />
          </mxGeometry>
        </mxCell>
        <mxCell id="4-opI2tt3qrMasOqlmpi-79" value="Is the&amp;nbsp;&lt;div&gt;user&amp;nbsp;&lt;/div&gt;&lt;div&gt;certain?&lt;/div&gt;" style="rhombus;whiteSpace=wrap;html=1;rounded=1;arcSize=14;strokeWidth=2;" vertex="1" parent="1">
          <mxGeometry x="900" y="260" width="80" height="80" as="geometry" />
        </mxCell>
        <mxCell id="4-opI2tt3qrMasOqlmpi-83" value="Terminate program" style="shape=process;whiteSpace=wrap;html=1;backgroundOutline=1;rounded=1;arcSize=14;strokeWidth=2;" vertex="1" parent="1">
          <mxGeometry x="790" y="360" width="120" height="60" as="geometry" />
        </mxCell>
        <mxCell id="4-opI2tt3qrMasOqlmpi-90" style="edgeStyle=orthogonalEdgeStyle;rounded=0;orthogonalLoop=1;jettySize=auto;html=1;entryX=0.5;entryY=0;entryDx=0;entryDy=0;" edge="1" parent="1" source="4-opI2tt3qrMasOqlmpi-86" target="4-opI2tt3qrMasOqlmpi-91">
          <mxGeometry relative="1" as="geometry">
            <mxPoint x="920" y="540" as="targetPoint" />
          </mxGeometry>
        </mxCell>
        <mxCell id="4-opI2tt3qrMasOqlmpi-86" value="Input = 4&lt;div&gt;Export report&lt;/div&gt;" style="shape=hexagon;perimeter=hexagonPerimeter2;whiteSpace=wrap;html=1;fixedSize=1;rounded=1;arcSize=14;strokeWidth=2;" vertex="1" parent="1">
          <mxGeometry x="690" y="430" width="120" height="80" as="geometry" />
        </mxCell>
        <mxCell id="4-opI2tt3qrMasOqlmpi-93" value="" style="edgeStyle=orthogonalEdgeStyle;rounded=0;orthogonalLoop=1;jettySize=auto;html=1;" edge="1" parent="1" source="4-opI2tt3qrMasOqlmpi-91" target="4-opI2tt3qrMasOqlmpi-92">
          <mxGeometry relative="1" as="geometry" />
        </mxCell>
        <mxCell id="4-opI2tt3qrMasOqlmpi-91" value="Print report menu" style="rounded=1;whiteSpace=wrap;html=1;absoluteArcSize=1;arcSize=14;strokeWidth=2;" vertex="1" parent="1">
          <mxGeometry x="870" y="520" width="100" height="100" as="geometry" />
        </mxCell>
        <mxCell id="4-opI2tt3qrMasOqlmpi-99" style="edgeStyle=orthogonalEdgeStyle;rounded=0;orthogonalLoop=1;jettySize=auto;html=1;" edge="1" parent="1" source="4-opI2tt3qrMasOqlmpi-92" target="4-opI2tt3qrMasOqlmpi-95">
          <mxGeometry relative="1" as="geometry" />
        </mxCell>
        <mxCell id="4-opI2tt3qrMasOqlmpi-101" value="" style="edgeStyle=orthogonalEdgeStyle;rounded=0;orthogonalLoop=1;jettySize=auto;html=1;" edge="1" parent="1" source="4-opI2tt3qrMasOqlmpi-92" target="4-opI2tt3qrMasOqlmpi-100">
          <mxGeometry relative="1" as="geometry" />
        </mxCell>
        <mxCell id="4-opI2tt3qrMasOqlmpi-115" value="" style="edgeStyle=orthogonalEdgeStyle;rounded=0;orthogonalLoop=1;jettySize=auto;html=1;" edge="1" parent="1" source="4-opI2tt3qrMasOqlmpi-92" target="4-opI2tt3qrMasOqlmpi-114">
          <mxGeometry relative="1" as="geometry" />
        </mxCell>
        <mxCell id="4-opI2tt3qrMasOqlmpi-118" style="edgeStyle=orthogonalEdgeStyle;rounded=0;orthogonalLoop=1;jettySize=auto;html=1;entryX=0;entryY=0.5;entryDx=0;entryDy=0;" edge="1" parent="1" source="4-opI2tt3qrMasOqlmpi-92" target="4-opI2tt3qrMasOqlmpi-117">
          <mxGeometry relative="1" as="geometry" />
        </mxCell>
        <mxCell id="4-opI2tt3qrMasOqlmpi-92" value="User input" style="rhombus;whiteSpace=wrap;html=1;rounded=1;arcSize=14;strokeWidth=2;" vertex="1" parent="1">
          <mxGeometry x="1100" y="530" width="80" height="80" as="geometry" />
        </mxCell>
        <mxCell id="4-opI2tt3qrMasOqlmpi-94" value="" style="edgeStyle=orthogonalEdgeStyle;rounded=0;orthogonalLoop=1;jettySize=auto;html=1;" edge="1" parent="1" source="4-opI2tt3qrMasOqlmpi-95" target="4-opI2tt3qrMasOqlmpi-96">
          <mxGeometry relative="1" as="geometry" />
        </mxCell>
        <mxCell id="4-opI2tt3qrMasOqlmpi-95" value="&lt;div&gt;&lt;span style=&quot;background-color: initial;&quot;&gt;input = 0&lt;/span&gt;&lt;br&gt;&lt;/div&gt;&lt;div&gt;&lt;span style=&quot;background-color: initial;&quot;&gt;information&lt;/span&gt;&lt;/div&gt;" style="shape=hexagon;perimeter=hexagonPerimeter2;whiteSpace=wrap;html=1;fixedSize=1;rounded=1;arcSize=14;strokeWidth=2;" vertex="1" parent="1">
          <mxGeometry x="1030" y="670" width="120" height="80" as="geometry" />
        </mxCell>
        <mxCell id="4-opI2tt3qrMasOqlmpi-98" style="edgeStyle=orthogonalEdgeStyle;rounded=0;orthogonalLoop=1;jettySize=auto;html=1;" edge="1" parent="1" source="4-opI2tt3qrMasOqlmpi-96" target="4-opI2tt3qrMasOqlmpi-91">
          <mxGeometry relative="1" as="geometry" />
        </mxCell>
        <mxCell id="4-opI2tt3qrMasOqlmpi-96" value="Print information page" style="shape=process;whiteSpace=wrap;html=1;backgroundOutline=1;rounded=1;arcSize=14;strokeWidth=2;" vertex="1" parent="1">
          <mxGeometry x="860" y="680" width="120" height="60" as="geometry" />
        </mxCell>
        <mxCell id="4-opI2tt3qrMasOqlmpi-105" value="" style="edgeStyle=orthogonalEdgeStyle;rounded=0;orthogonalLoop=1;jettySize=auto;html=1;" edge="1" parent="1" source="4-opI2tt3qrMasOqlmpi-100" target="4-opI2tt3qrMasOqlmpi-104">
          <mxGeometry relative="1" as="geometry" />
        </mxCell>
        <mxCell id="4-opI2tt3qrMasOqlmpi-100" value="Input = 1&lt;div&gt;CSV&lt;/div&gt;" style="shape=hexagon;perimeter=hexagonPerimeter2;whiteSpace=wrap;html=1;fixedSize=1;rounded=1;arcSize=14;strokeWidth=2;" vertex="1" parent="1">
          <mxGeometry x="1240" y="530" width="120" height="80" as="geometry" />
        </mxCell>
        <mxCell id="4-opI2tt3qrMasOqlmpi-107" value="" style="edgeStyle=orthogonalEdgeStyle;rounded=0;orthogonalLoop=1;jettySize=auto;html=1;" edge="1" parent="1" source="4-opI2tt3qrMasOqlmpi-104" target="4-opI2tt3qrMasOqlmpi-106">
          <mxGeometry relative="1" as="geometry" />
        </mxCell>
        <mxCell id="4-opI2tt3qrMasOqlmpi-104" value="Name&amp;nbsp;&lt;div&gt;report&amp;nbsp;&lt;/div&gt;&lt;div&gt;file&lt;/div&gt;" style="rhombus;whiteSpace=wrap;html=1;rounded=1;arcSize=14;strokeWidth=2;" vertex="1" parent="1">
          <mxGeometry x="1260" y="690" width="80" height="80" as="geometry" />
        </mxCell>
        <mxCell id="4-opI2tt3qrMasOqlmpi-109" value="" style="edgeStyle=orthogonalEdgeStyle;rounded=0;orthogonalLoop=1;jettySize=auto;html=1;" edge="1" parent="1" source="4-opI2tt3qrMasOqlmpi-106" target="4-opI2tt3qrMasOqlmpi-108">
          <mxGeometry relative="1" as="geometry" />
        </mxCell>
        <mxCell id="4-opI2tt3qrMasOqlmpi-106" value="Append .csv to file name.&lt;div&gt;Create file&lt;/div&gt;" style="shape=process;whiteSpace=wrap;html=1;backgroundOutline=1;rounded=1;arcSize=14;strokeWidth=2;" vertex="1" parent="1">
          <mxGeometry x="1240" y="810" width="120" height="60" as="geometry" />
        </mxCell>
        <mxCell id="4-opI2tt3qrMasOqlmpi-111" value="" style="edgeStyle=orthogonalEdgeStyle;rounded=0;orthogonalLoop=1;jettySize=auto;html=1;" edge="1" parent="1" source="4-opI2tt3qrMasOqlmpi-108" target="4-opI2tt3qrMasOqlmpi-110">
          <mxGeometry relative="1" as="geometry" />
        </mxCell>
        <mxCell id="4-opI2tt3qrMasOqlmpi-108" value="Convert main image and duplicate image dictionaries into a singular list" style="shape=process;whiteSpace=wrap;html=1;backgroundOutline=1;rounded=1;arcSize=14;strokeWidth=2;" vertex="1" parent="1">
          <mxGeometry x="1050" y="800" width="120" height="80" as="geometry" />
        </mxCell>
        <mxCell id="4-opI2tt3qrMasOqlmpi-113" style="edgeStyle=orthogonalEdgeStyle;rounded=0;orthogonalLoop=1;jettySize=auto;html=1;entryX=0;entryY=0.5;entryDx=0;entryDy=0;" edge="1" parent="1" source="4-opI2tt3qrMasOqlmpi-110" target="4-opI2tt3qrMasOqlmpi-91">
          <mxGeometry relative="1" as="geometry">
            <Array as="points">
              <mxPoint x="830" y="840" />
              <mxPoint x="830" y="570" />
            </Array>
          </mxGeometry>
        </mxCell>
        <mxCell id="4-opI2tt3qrMasOqlmpi-110" value="Write list to newly created report file" style="shape=process;whiteSpace=wrap;html=1;backgroundOutline=1;rounded=1;arcSize=14;strokeWidth=2;" vertex="1" parent="1">
          <mxGeometry x="880" y="810" width="120" height="60" as="geometry" />
        </mxCell>
        <mxCell id="4-opI2tt3qrMasOqlmpi-116" style="edgeStyle=orthogonalEdgeStyle;rounded=0;orthogonalLoop=1;jettySize=auto;html=1;entryX=1;entryY=0.5;entryDx=0;entryDy=0;" edge="1" parent="1" source="4-opI2tt3qrMasOqlmpi-114" target="60e70716793133e9-4">
          <mxGeometry relative="1" as="geometry">
            <Array as="points">
              <mxPoint x="1140" y="180" />
            </Array>
          </mxGeometry>
        </mxCell>
        <mxCell id="4-opI2tt3qrMasOqlmpi-114" value="Input = 4&lt;div&gt;Exit&lt;/div&gt;" style="shape=hexagon;perimeter=hexagonPerimeter2;whiteSpace=wrap;html=1;fixedSize=1;rounded=1;arcSize=14;strokeWidth=2;" vertex="1" parent="1">
          <mxGeometry x="1080" y="330" width="120" height="80" as="geometry" />
        </mxCell>
        <mxCell id="4-opI2tt3qrMasOqlmpi-117" value="Input = 2 or 3&lt;div&gt;Nothing. WIP&lt;/div&gt;" style="shape=hexagon;perimeter=hexagonPerimeter2;whiteSpace=wrap;html=1;fixedSize=1;rounded=1;arcSize=14;strokeWidth=2;" vertex="1" parent="1">
          <mxGeometry x="1230" y="410" width="120" height="80" as="geometry" />
        </mxCell>
      </root>
    </mxGraphModel>
  </diagram>
</mxfile>
